<?xml version="1.0" encoding="utf-8"?>
<!-- Generator: Adobe Illustrator 27.0.0, SVG Export Plug-In . SVG Version: 6.00 Build 0)  -->
<svg version="1.1" id="Layer_1" xmlns="http://www.w3.org/2000/svg" xmlns:xlink="http://www.w3.org/1999/xlink" x="0px" y="0px"
	 viewBox="0 0 1259.5 266.1" style="enable-background:new 0 0 1259.5 266.1;" xml:space="preserve">
<style type="text/css">
	.st0{fill:#0046BE;}
	.st1{fill:#313A4B;}
</style>
<path class="st0" d="M223.8,133.1c0,40-0.1,80,0.1,120c0,5-1.3,6.5-6.4,6.5c-69.3-0.2-138.5-0.1-207.8,0c-4.7,0-6.3-1.1-6.3-6.1
	C3.6,173,3.6,92.5,3.5,12c0-4.3,1.1-6.2,5.7-5.3c2.1,0.4,4.3,0.2,6.5,0.2C82.8,7,149.9,7,217,7c6.8,0,6.8,0,6.8,6.7
	C223.9,53.5,223.8,93.3,223.8,133.1z M50.8,37c-1.5,0-3,0-4.5,0c-15.4,0.5-13.4-1.3-11,13.5c7.3,45.3,49.1,71.6,89.1,66.4
	c37.8-5,68-37.4,69.3-75.6c0.1-3.4-1.1-4.4-4.3-4.3c-6.7,0.1-13.3,0-20,0c-7.7,0-7.7,0-8.9,7.5c-3.3,21.3-21.8,38.6-42.5,39.8
	c-23.7,1.4-43.6-12.5-49.6-34.7c-1.1-4.1-1-10-3.6-11.9c-3.1-2.1-8.6-0.7-13.1-0.8C51.5,37,51.2,37,50.8,37z"/>
<g>
	<path class="st1" d="M953.4,174.4c0,14.6,0,28.3,0,42.3c-9.1,0-17.6,0-26.6,0c-0.1-1.7-0.2-3.3-0.2-4.9c0-40.8,0.1-81.7-0.1-122.5
		c0-4.8,1.5-5.9,6-5.7c6.6,0.3,13.3,0.1,20.4,0.1c0.2,3,0.4,5.9,0.7,9.5c3.3-2.2,6-4.1,8.9-5.8c25-14.4,59.6-1.9,69,25.3
		c7.4,21.4,5.4,41.6-10.1,58.9c-15.7,17.4-46.7,20.5-64.1,5.4C956.4,176.1,955.3,175.5,953.4,174.4z M1009.5,134.5
		c0.1-17.4-11.5-29.7-28.3-30c-17.5-0.3-28.8,10.8-28.9,28.3c-0.1,18.6,10.6,30.4,27.7,30.6C997.9,163.6,1009.4,152.4,1009.5,134.5z
		"/>
	<path class="st1" d="M589.3,83.8c8.6,0,16.7,0,25.2,0c0.3,3,0.6,5.8,0.9,7.9c7.3-3.1,14-7.2,21.4-9c28.1-6.9,55.6,12.2,59.9,40.7
		c2.1,14.4,0.3,27.9-7.6,40.5c-8.4,13.3-20.5,20.4-35.9,22.1c-13.4,1.5-25.9-0.8-35.7-11.2c-0.3-0.3-0.9-0.3-2.2-0.7
		c0,14.3,0,28.2,0,42.5c-9.1,0-17.3,0-26,0C589.3,172.6,589.3,128.4,589.3,83.8z M642.5,163.4c17.3,0.1,28.7-11.2,28.8-28.7
		c0.2-17.8-11.6-30.2-28.6-30.2c-17.5,0-28.7,11.4-28.7,29.3C614,151.7,625.2,163.3,642.5,163.4z"/>
	<path class="st1" d="M1069.3,174.6c0,14.4,0,28,0,41.9c-8.7,0-17,0-25.8,0c0-44.1,0-88.1,0-132.5c8.4,0,16.8,0,25.5,0
		c0.1,2.8,0.3,5.6,0.5,9.6c2.4-1.9,4-3.5,5.8-4.6c16.6-9.8,33.5-10.3,50.7-1.5c30.5,15.8,33.5,63,10,85.7
		c-16.4,15.8-47.6,18.3-63.7,2.8C1071.8,175.5,1070.9,175.4,1069.3,174.6z M1068.2,133.9c0,17.9,11.1,29.5,28.4,29.5
		c17.5,0.1,28.8-11.3,28.8-29c0-17.9-11.5-29.9-28.8-29.9C1079.1,104.5,1068.2,115.7,1068.2,133.9z"/>
	<path class="st1" d="M888.3,93.5c0.2-3.9,0.4-6.6,0.5-9.6c8.5,0,16.8,0,25.4,0c0,33.3,0,66.3,0,99.8c-8.4,0-16.7,0-25.5,0
		c-0.1-2.8-0.3-5.5-0.4-8.6c-1,0.2-2,0.2-2.5,0.6c-19.2,18.5-63.2,14.5-75.8-20.8c-7.4-20.7-5.2-40.7,9.4-57.8
		c9.9-11.6,23.5-16.1,38.8-15.7c9.8,0.2,18.6,3,26.1,9.3C885.3,91.5,886.4,92.2,888.3,93.5z M889.6,134c0-17.9-11.5-29.6-29-29.6
		c-17.3,0.1-28.3,11.6-28.2,29.6c0,17.6,11.5,29.3,28.8,29.3C878.6,163.3,889.6,152,889.6,134z"/>
	<path class="st1" d="M396.7,183.9c-9.1,0-17.5,0-26.4,0c-0.1-1.7-0.2-3.3-0.2-4.9c0-42.8,0.1-85.7-0.1-128.5c0-4.7,1.4-6,5.9-5.7
		c5.5,0.4,11,0.3,16.5,0c3.6-0.2,4.5,1.1,4.5,4.5c-0.2,12.9-0.1,25.9-0.1,38.8c0,1.1,0.2,2.2,0.3,3.5c5.5-2.7,10.4-5.7,15.7-7.6
		c13.4-5,26.4-2.8,37.9,5.1c8.7,6,12.5,15.6,12.9,25.8c0.8,21.9,0.8,43.8,0.9,65.7c0,1.1-1.5,3.2-2.4,3.2
		c-7.9,0.3-15.9,0.1-24.5,0.1c0-2.4,0-4.4,0-6.3c0-16.4,0-32.9,0-49.3c0-2.5-0.3-5-0.4-7.4c-0.3-7.8-3.6-14-11.4-16.3
		c-8.7-2.7-17.2-2.4-23.7,5.3c-4,4.7-5.3,10.6-5.3,16.7c0,17.1,0,34.2,0,51.3C396.7,179.8,396.7,181.6,396.7,183.9z"/>
	<path class="st1" d="M772.6,184.1c-0.1-2.6-0.3-4.7-0.3-6.8c0-16.8,0-33.5,0-50.3c0-3.1-0.2-6.3-0.7-9.4c-1.2-7.7-7.1-13-15.3-14.1
		c-9.4-1.3-18.4,2.4-21.3,9.4c-1.8,4.5-3.2,9.5-3.3,14.3c-0.4,16.9-0.2,33.9-0.2,50.8c0,1.8,0,3.6,0,5.8c-8.9,0-17.4,0-26.4,0
		c-0.1-1.6-0.2-3.2-0.2-4.8c0-42.8,0.1-85.6-0.1-128.4c0-4.7,1.3-6.1,5.9-5.7c5.5,0.4,11,0.3,16.5,0c3.6-0.2,4.5,1.1,4.5,4.6
		c-0.2,13.1-0.1,26.2,0,39.3c0,0.8,0.1,1.6,0.3,3.5c2.4-1.5,4.4-2.6,6.4-3.9c15.1-10.1,39.5-8.3,50.7,3.9c6.1,6.6,9.2,14.6,9.6,23.4
		c0.6,14.2,0.7,28.5,1,42.7c0.1,7.3,0.1,14.6-0.1,21.9c0,1.3-1.6,3.7-2.5,3.7C788.9,184.2,781,184.1,772.6,184.1z"/>
	<path class="st1" d="M471.6,134.9c-0.1-28.7,24.5-53.1,53.9-53.1c29.9-0.1,55.8,22.6,55.9,52.4c0.1,28.9-23.9,52.6-55.5,52.7
		C496.1,186.8,471.6,163,471.6,134.9z M497.7,134.5c0,17.5,11.8,29.1,29.5,29.2c15.6,0,27.7-12.9,27.7-29.7
		c0-16.8-12.1-29.2-28.6-29.2C509.7,104.8,497.6,117.3,497.7,134.5z"/>
	<path class="st1" d="M1170.7,222.3c4.9-11.6,9.1-22.4,13.9-32.9c2.4-5.3,2.8-9.8,0.2-15.4c-12.8-27.4-25-55.2-37.3-82.8
		c-1-2.2-1.8-4.6-2.9-7.4c9.6,0,18.6-0.2,27.7,0.2c1.4,0.1,3.3,2.4,4,4.1c7.8,19.1,15.4,38.4,23,57.6c0.3,0.7,0.8,1.4,1.9,3.4
		c2.1-5,4-8.9,5.4-12.9c5.9-16.1,11.7-32.3,17.7-48.5c0.6-1.5,2.4-3.7,3.7-3.7c9.1-0.3,18.2-0.2,28-0.2c-6,14.7-11.7,28.7-17.4,42.8
		c-12.4,30.5-24.9,60.9-37.3,91.4c-1.2,3-2.7,4.5-6.2,4.4C1187.4,222.1,1179.6,222.3,1170.7,222.3z"/>
	<path class="st1" d="M275,171.4c4.3-5.6,8-11,12.3-15.9c0.8-0.9,4.1-0.2,6,0.5c6.6,2.2,12.9,5.6,19.6,6.7c6,1,12.5,0,18.6-1.3
		c2.2-0.5,4.4-4.2,5.2-6.9c1-3.3-1.6-5.7-4.8-6.5c-7.6-1.8-15.4-2.7-22.8-4.8c-7.1-2-14.3-4.4-20.7-7.9c-16.8-9.3-16.3-38,3.9-47.8
		c16.1-7.8,32.8-7.7,49.3-1.5c6.1,2.3,11.7,5.9,18,9.2c-4.5,6-8.2,11.2-12.2,16.2c-0.6,0.8-3,0.7-4.3,0.3c-6.6-2.1-13-5.2-19.7-6.4
		c-5-0.9-10.5,0.2-15.5,1.4c-2,0.5-4.4,3.5-4.6,5.5c-0.1,2,1.9,5.2,3.8,6c4.8,2,10.1,2.9,15.2,4.3c9.1,2.5,18.4,4.3,27.1,7.8
		c16.6,6.7,16.4,30.9,8.5,41.7c-5.9,8-14,11.9-23.5,13.4C313.3,188.8,293.7,184.8,275,171.4z"/>
</g>
<path class="st0" d="M697.2,203.9c0,13.1,0,13.1-13.1,13.1c-13.3,0-13.4,0-13.3-13.3c0.1-14.9-2.1-13,13.2-13.1
	C697.2,190.5,697.2,190.5,697.2,203.9z"/>
</svg>